# xmcd CD database file
#
# Track frame offsets:
#	150
#	10605
#	123637
#	164560
#	186585
#	217007
#	228750
#	265372
#	280070
#
# Disc length: 4087 seconds
#
# Revision: 0
# Processed by: cddbd v1.5.2PL0 Copyright (c) Steve Scherf et al.
# Submitted via: CDex 1.70beta2
#
DISCID=820ff509
DTITLE=Triocolor - KlängeMachenGehen
DYEAR=1997
DGENRE=Jazz
TTITLE0=Paul
TTITLE1=Suite - a. In einem Zug - b. Times - c. Choral 2
TTITLE2=In a quiet miment
TTITLE3=Konsttrukt
TTITLE4=For Katrin
TTITLE5=Turns
TTITLE6=E
TTITLE7=Baby, Baby, Baby
TTITLE8=Sleep Well
EXTD=YEAR: 1997
EXTT0=
EXTT1=
EXTT2=
EXTT3=
EXTT4=
EXTT5=
EXTT6=
EXTT7=
EXTT8=
PLAYORDER=
